<svg width="170" height="170" viewBox="0 0 170 170" fill="none" xmlns="http://www.w3.org/2000/svg">
<g filter="url(#filter0_d_1540_18)">
<rect x="10" y="10" width="150" height="150" rx="8" fill="#FFF4E8" shape-rendering="crispEdges"/>
<rect x="11" y="11" width="148" height="148" rx="7" stroke="black" stroke-width="2" shape-rendering="crispEdges"/>
<path d="M85 132.5C78.4292 132.5 72.2542 131.252 66.475 128.757C60.6958 126.262 55.6688 122.878 51.3938 118.606C47.1188 114.334 43.7352 109.307 41.243 103.525C38.7508 97.7427 37.5032 91.5677 37.5 85C37.4968 78.4323 38.7445 72.2573 41.243 66.475C43.7415 60.6927 47.1251 55.6656 51.3938 51.3938C55.6624 47.1219 60.6895 43.7383 66.475 41.243C72.2605 38.7477 78.4355 37.5 85 37.5C91.5645 37.5 97.7395 38.7477 103.525 41.243C109.31 43.7383 114.338 47.1219 118.606 51.3938C122.875 55.6656 126.26 60.6927 128.762 66.475C131.263 72.2573 132.509 78.4323 132.5 85C132.49 91.5677 131.243 97.7427 128.757 103.525C126.271 109.307 122.888 114.334 118.606 118.606C114.325 122.878 109.298 126.263 103.525 128.762C97.7522 131.26 91.5772 132.506 85 132.5ZM85 123C95.6083 123 104.594 119.319 111.956 111.956C119.319 104.594 123 95.6083 123 85C123 84.4458 122.981 83.8711 122.943 83.2758C122.905 82.6804 122.884 82.1864 122.881 81.7937C122.485 84.0896 121.417 85.9896 119.675 87.4937C117.933 88.9979 115.875 89.75 113.5 89.75H104C101.387 89.75 99.1518 88.8206 97.293 86.9618C95.4342 85.1029 94.5032 82.8657 94.5 80.25V75.5H75.5V66C75.5 63.3875 76.431 61.1518 78.293 59.293C80.155 57.4342 82.3907 56.5032 85 56.5H89.75C89.75 54.6792 90.2456 53.0768 91.2367 51.693C92.2279 50.3092 93.4344 49.1803 94.8562 48.3063C93.2729 47.9104 91.6706 47.5937 90.0492 47.3562C88.4279 47.1187 86.7448 47 85 47C74.3917 47 65.4063 50.6812 58.0438 58.0437C50.6813 65.4062 47 74.3917 47 85H70.75C75.975 85 80.4479 86.8604 84.1687 90.5813C87.8896 94.3021 89.75 98.775 89.75 104V108.75H75.5V121.812C77.0833 122.208 78.6477 122.506 80.193 122.705C81.7383 122.905 83.3407 123.003 85 123Z" fill="black"/>
</g>
<defs>
<filter id="filter0_d_1540_18" x="10" y="10" width="152" height="152" filterUnits="userSpaceOnUse" color-interpolation-filters="sRGB">
<feFlood flood-opacity="0" result="BackgroundImageFix"/>
<feColorMatrix in="SourceAlpha" type="matrix" values="0 0 0 0 0 0 0 0 0 0 0 0 0 0 0 0 0 0 127 0" result="hardAlpha"/>
<feOffset dx="2" dy="2"/>
<feComposite in2="hardAlpha" operator="out"/>
<feColorMatrix type="matrix" values="0 0 0 0 0 0 0 0 0 0 0 0 0 0 0 0 0 0 1 0"/>
<feBlend mode="normal" in2="BackgroundImageFix" result="effect1_dropShadow_1540_18"/>
<feBlend mode="normal" in="SourceGraphic" in2="effect1_dropShadow_1540_18" result="shape"/>
</filter>
</defs>
</svg>
