<svg width="24" height="25" viewBox="0 0 24 25" fill="none" xmlns="http://www.w3.org/2000/svg">
<path d="M13.3802 3.70847L12.6901 4.43218L13.3802 3.70847ZM2.61978 11.3371L1.92967 10.6134L2.61978 11.3371ZM21.3802 11.3371L20.6901 12.0608L21.3802 11.3371ZM23 20.3923V12.7845H21V20.3923H23ZM18 23.3923H20V21.3923H18V23.3923ZM17 20.3923V17.3923H15V20.3923H17ZM17 17.3923C17 14.6309 14.7614 12.3923 12 12.3923V14.3923C13.6569 14.3923 15 15.7355 15 17.3923H17ZM12 12.3923C9.23858 12.3923 7 14.6309 7 17.3923H9C9 15.7355 10.3431 14.3923 12 14.3923V12.3923ZM7 17.3923V20.3923H9V17.3923H7ZM4 23.3923H6V21.3923H4V23.3923ZM1 12.7845V20.3923H3V12.7845H1ZM9.92967 2.98477L1.92967 10.6134L3.30989 12.0608L11.3099 4.43218L9.92967 2.98477ZM22.0703 10.6134L14.0703 2.98477L12.6901 4.43218L20.6901 12.0608L22.0703 10.6134ZM11.3099 4.43218C11.6962 4.06379 12.3038 4.06379 12.6901 4.43218L14.0703 2.98477C12.9113 1.87959 11.0887 1.87959 9.92967 2.98477L11.3099 4.43218ZM3 12.7845C3 12.511 3.11199 12.2495 3.30989 12.0608L1.92967 10.6134C1.33596 11.1795 1 11.9641 1 12.7845H3ZM4 21.3923C3.44772 21.3923 3 20.9446 3 20.3923H1C1 22.0492 2.34315 23.3923 4 23.3923V21.3923ZM18 21.3923C17.4477 21.3923 17 20.9446 17 20.3923H15C15 22.0492 16.3431 23.3923 18 23.3923V21.3923ZM7 20.3923C7 20.9446 6.55228 21.3923 6 21.3923V23.3923C7.65685 23.3923 9 22.0492 9 20.3923H7ZM23 12.7845C23 11.9641 22.664 11.1795 22.0703 10.6134L20.6901 12.0608C20.888 12.2495 21 12.511 21 12.7845H23ZM21 20.3923C21 20.9446 20.5523 21.3923 20 21.3923V23.3923C21.6569 23.3923 23 22.0492 23 20.3923H21Z" fill="black"/>
</svg>
