<svg width="24" height="24" viewBox="0 0 24 24" fill="none" xmlns="http://www.w3.org/2000/svg">
<path d="M12 17C10.7833 17 9.721 16.621 8.813 15.863C7.905 15.105 7.334 14.1507 7.1 13H2V11H7.1C7.33333 9.85 7.90433 8.89567 8.813 8.137C9.72167 7.37833 10.784 6.99933 12 7C13.216 7.00067 14.2787 7.38 15.188 8.138C16.0973 8.896 16.668 9.85 16.9 11H22V13H16.9C16.6667 14.15 16.096 15.1043 15.188 15.863C14.28 16.6217 13.2173 17.0007 12 17ZM12 15C12.8333 15 13.5417 14.7083 14.125 14.125C14.7083 13.5417 15 12.8333 15 12C15 11.1667 14.7083 10.4583 14.125 9.875C13.5417 9.29167 12.8333 9 12 9C11.1667 9 10.4583 9.29167 9.875 9.875C9.29167 10.4583 9 11.1667 9 12C9 12.8333 9.29167 13.5417 9.875 14.125C10.4583 14.7083 11.1667 15 12 15Z" fill="black"/>
</svg>
