<svg width="24" height="25" viewBox="0 0 24 25" fill="none" xmlns="http://www.w3.org/2000/svg">
<path d="M20.9998 5.67997V17.5C20.9996 18.3805 20.7089 19.2363 20.1728 19.9347C19.6366 20.6332 18.885 21.1352 18.0345 21.363C17.1839 21.5907 16.282 21.5314 15.4686 21.1944C14.6552 20.8573 13.9757 20.2613 13.5355 19.4987C13.0954 18.7361 12.9191 17.8496 13.0341 16.9766C13.1491 16.1037 13.5489 15.2931 14.1716 14.6705C14.7942 14.0479 15.6049 13.6482 16.4779 13.5333C17.3508 13.4184 18.2373 13.5947 18.9998 14.035V9.68097L8.99985 11.347V18.5C8.99985 18.56 8.99485 18.618 8.98485 18.674C9.05664 19.4429 8.87207 20.2141 8.4599 20.8672C8.04772 21.5204 7.43109 22.0188 6.70607 22.285C5.98105 22.5511 5.18836 22.5699 4.45151 22.3386C3.71466 22.1072 3.07502 21.6386 2.63226 21.0058C2.1895 20.373 1.96848 19.6115 2.00363 18.84C2.03878 18.0685 2.32813 17.3303 2.8266 16.7404C3.32507 16.1504 4.00467 15.742 4.75951 15.5786C5.51435 15.4152 6.30203 15.506 6.99985 15.837V7.34697C6.99979 6.87353 7.16768 6.41542 7.47366 6.05415C7.77964 5.69287 8.20386 5.45185 8.67085 5.37397L18.6708 3.70797C18.9573 3.6602 19.2507 3.67538 19.5307 3.75247C19.8107 3.82956 20.0706 3.96671 20.2922 4.15438C20.5139 4.34204 20.692 4.57573 20.8142 4.83918C20.9364 5.10264 20.9997 5.38955 20.9998 5.67997ZM5.49985 17.5C5.10202 17.5 4.72049 17.658 4.43919 17.9393C4.15788 18.2206 3.99985 18.6021 3.99985 19C3.99985 19.3978 4.15788 19.7793 4.43919 20.0606C4.72049 20.3419 5.10202 20.5 5.49985 20.5C5.89767 20.5 6.2792 20.3419 6.56051 20.0606C6.84181 19.7793 6.99985 19.3978 6.99985 19C6.99985 18.6021 6.84181 18.2206 6.56051 17.9393C6.2792 17.658 5.89767 17.5 5.49985 17.5ZM16.9998 15.5C16.4694 15.5 15.9607 15.7107 15.5856 16.0858C15.2106 16.4608 14.9998 16.9695 14.9998 17.5C14.9998 18.0304 15.2106 18.5391 15.5856 18.9142C15.9607 19.2893 16.4694 19.5 16.9998 19.5C17.5303 19.5 18.039 19.2893 18.4141 18.9142C18.7891 18.5391 18.9998 18.0304 18.9998 17.5C18.9998 16.9695 18.7891 16.4608 18.4141 16.0858C18.039 15.7107 17.5303 15.5 16.9998 15.5ZM18.9998 5.67997L8.99985 7.34697V9.31997L18.9998 7.65297V5.67997Z" fill="black"/>
</svg>
