<svg width="24" height="25" viewBox="0 0 24 25" fill="none" xmlns="http://www.w3.org/2000/svg">
<mask id="mask0_1473_609" style="mask-type:luminance" maskUnits="userSpaceOnUse" x="1" y="1" width="21" height="22">
<path fill-rule="evenodd" clip-rule="evenodd" d="M2 2.39233H21.4768V21.8693H2V2.39233Z" fill="white" stroke="white"/>
</mask>
<g mask="url(#mask0_1473_609)">
<path fill-rule="evenodd" clip-rule="evenodd" d="M11.739 3.89233C7.196 3.89233 3.5 7.58733 3.5 12.1303C3.5 16.6733 7.196 20.3693 11.739 20.3693C16.281 20.3693 19.977 16.6733 19.977 12.1303C19.977 7.58733 16.281 3.89233 11.739 3.89233M11.739 21.8693C6.369 21.8693 2 17.5003 2 12.1303C2 6.76033 6.369 2.39233 11.739 2.39233C17.109 2.39233 21.477 6.76033 21.477 12.1303C21.477 17.5003 17.109 21.8693 11.739 21.8693" fill="black"/>
<path d="M11.739 3.39233C6.91994 3.39233 3 7.31111 3 12.1303H4C4 7.86356 7.47206 4.39233 11.739 4.39233V3.39233ZM3 12.1303C3 16.9495 6.91986 20.8693 11.739 20.8693V19.8693C7.47214 19.8693 4 16.3972 4 12.1303H3ZM11.739 20.8693C16.5572 20.8693 20.477 16.9494 20.477 12.1303H19.477C19.477 16.3972 16.0048 19.8693 11.739 19.8693V20.8693ZM20.477 12.1303C20.477 7.31115 16.5571 3.39233 11.739 3.39233V4.39233C16.0049 4.39233 19.477 7.86352 19.477 12.1303H20.477ZM11.739 21.3693C6.64514 21.3693 2.5 17.2242 2.5 12.1303H1.5C1.5 17.7765 6.09286 22.3693 11.739 22.3693V21.3693ZM2.5 12.1303C2.5 7.03654 6.64508 2.89233 11.739 2.89233V1.89233C6.09292 1.89233 1.5 6.48412 1.5 12.1303H2.5ZM11.739 2.89233C16.8329 2.89233 20.977 7.03648 20.977 12.1303H21.977C21.977 6.48419 17.3851 1.89233 11.739 1.89233V2.89233ZM20.977 12.1303C20.977 17.2243 16.8328 21.3693 11.739 21.3693V22.3693C17.3852 22.3693 21.977 17.7764 21.977 12.1303H20.977Z" fill="black"/>
</g>
<mask id="mask1_1473_609" style="mask-type:luminance" maskUnits="userSpaceOnUse" x="16" y="17" width="7" height="7">
<path fill-rule="evenodd" clip-rule="evenodd" d="M17.2402 18.0992H22.2643V23.114H17.2402V18.0992Z" fill="white" stroke="white"/>
</mask>
<g mask="url(#mask1_1473_609)">
<path fill-rule="evenodd" clip-rule="evenodd" d="M21.5145 23.114C21.3235 23.114 21.1315 23.041 20.9845 22.895L17.4605 19.381C17.1675 19.088 17.1665 18.613 17.4595 18.32C17.7515 18.025 18.2265 18.027 18.5205 18.318L22.0445 21.833C22.3375 22.126 22.3385 22.6 22.0455 22.893C21.8995 23.041 21.7065 23.114 21.5145 23.114" fill="black"/>
<path d="M21.5145 23.114C21.3235 23.114 21.1315 23.041 20.9845 22.895L17.4605 19.381C17.1675 19.088 17.1665 18.613 17.4595 18.32C17.7515 18.025 18.2265 18.027 18.5205 18.318L22.0445 21.833C22.3375 22.126 22.3385 22.6 22.0455 22.893C21.8995 23.041 21.7065 23.114 21.5145 23.114" stroke="black"/>
</g>
</svg>
