<svg width="24" height="25" viewBox="0 0 24 25" fill="none" xmlns="http://www.w3.org/2000/svg">
<path d="M10.3078 14.192L15.1538 9.34598M20.1098 6.38998L16.0198 19.684C15.6528 20.876 15.4698 21.472 15.1528 21.669C15.0178 21.7533 14.8647 21.8042 14.706 21.8174C14.5474 21.8306 14.3879 21.8058 14.2408 21.745C13.8968 21.602 13.6168 21.045 13.0588 19.929L10.4688 14.747C10.4159 14.6269 10.3512 14.5124 10.2758 14.405C10.2238 14.3372 10.1633 14.2764 10.0958 14.224C9.99165 14.1516 9.88082 14.0893 9.76484 14.038L4.57184 11.44C3.45684 10.882 2.89884 10.603 2.75584 10.259C2.69484 10.1117 2.66991 9.95208 2.68313 9.79326C2.69635 9.63445 2.74734 9.48109 2.83184 9.34598C3.02884 9.02998 3.62484 8.84598 4.81684 8.47898L18.1118 4.38898C19.0488 4.09998 19.5168 3.95598 19.8338 4.07298C19.97 4.12298 20.0937 4.20201 20.1962 4.30458C20.2988 4.40715 20.3778 4.53081 20.4278 4.66698C20.5438 4.98298 20.3998 5.45098 20.1118 6.38698L20.1098 6.38998Z" stroke="black" stroke-width="2" stroke-linecap="round" stroke-linejoin="round"/>
</svg>
